<?xml version="1.0" encoding="us-ascii" standalone="no"?><svg xmlns="http://www.w3.org/2000/svg" xmlns:xlink="http://www.w3.org/1999/xlink" contentStyleType="text/css" height="468px" preserveAspectRatio="none" style="width:500px;height:468px;background:#FFFFFF;" version="1.1" viewBox="0 0 500 468" width="500px" zoomAndPan="magnify"><defs/><g><rect fill="#FFFFFF" height="194.5527" style="stroke:#181818;stroke-width:1.0;" width="10" x="345" y="184.4199"/><line style="stroke:#181818;stroke-width:0.5;stroke-dasharray:5.0,5.0;" x1="28" x2="28" y1="81.4883" y2="387.9727"/><line style="stroke:#181818;stroke-width:0.5;stroke-dasharray:5.0,5.0;" x1="189.5" x2="189.5" y1="81.4883" y2="387.9727"/><line style="stroke:#181818;stroke-width:0.5;stroke-dasharray:5.0,5.0;" x1="349.5" x2="349.5" y1="81.4883" y2="387.9727"/><text fill="#000000" font-family="sans-serif" font-size="14" lengthAdjust="spacing" textLength="40" x="5" y="78.5352">Client</text><ellipse cx="28" cy="13.5" fill="#E2E2F0" rx="8" ry="8" style="stroke:#181818;stroke-width:0.5;"/><path d="M28,21.5 L28,48.5 M15,29.5 L41,29.5 M28,48.5 L15,63.5 M28,48.5 L41,63.5 " fill="none" style="stroke:#181818;stroke-width:0.5;"/><text fill="#000000" font-family="sans-serif" font-size="14" lengthAdjust="spacing" textLength="40" x="5" y="400.5078">Client</text><ellipse cx="28" cy="411.9609" fill="#E2E2F0" rx="8" ry="8" style="stroke:#181818;stroke-width:0.5;"/><path d="M28,419.9609 L28,446.9609 M15,427.9609 L41,427.9609 M28,446.9609 L15,461.9609 M28,446.9609 L41,461.9609 " fill="none" style="stroke:#181818;stroke-width:0.5;"/><rect fill="#E2E2F0" height="30.4883" rx="2.5" ry="2.5" style="stroke:#181818;stroke-width:0.5;" width="105" x="137.5" y="50"/><text fill="#000000" font-family="sans-serif" font-size="14" lengthAdjust="spacing" textLength="91" x="144.5" y="70.5352">Client Library</text><rect fill="#E2E2F0" height="30.4883" rx="2.5" ry="2.5" style="stroke:#181818;stroke-width:0.5;" width="105" x="137.5" y="386.9727"/><text fill="#000000" font-family="sans-serif" font-size="14" lengthAdjust="spacing" textLength="91" x="144.5" y="407.5078">Client Library</text><rect fill="#E2E2F0" height="30.4883" rx="2.5" ry="2.5" style="stroke:#181818;stroke-width:0.5;" width="117" x="291.5" y="50"/><text fill="#000000" font-family="sans-serif" font-size="14" lengthAdjust="spacing" textLength="103" x="298.5" y="70.5352">Logging Server</text><rect fill="#E2E2F0" height="30.4883" rx="2.5" ry="2.5" style="stroke:#181818;stroke-width:0.5;" width="117" x="291.5" y="386.9727"/><text fill="#000000" font-family="sans-serif" font-size="14" lengthAdjust="spacing" textLength="103" x="298.5" y="407.5078">Logging Server</text><rect fill="#FFFFFF" height="194.5527" style="stroke:#181818;stroke-width:1.0;" width="10" x="345" y="184.4199"/><polygon fill="#181818" points="178,108.7988,188,112.7988,178,116.7988,182,112.7988" style="stroke:#181818;stroke-width:1.0;"/><line style="stroke:#181818;stroke-width:1.0;" x1="28" x2="184" y1="112.7988" y2="112.7988"/><text fill="#000000" font-family="sans-serif" font-size="13" lengthAdjust="spacing" textLength="138" x="35" y="108.0566">Generate log message</text><line style="stroke:#181818;stroke-width:1.0;" x1="190" x2="232" y1="142.1094" y2="142.1094"/><line style="stroke:#181818;stroke-width:1.0;" x1="232" x2="232" y1="142.1094" y2="155.1094"/><line style="stroke:#181818;stroke-width:1.0;" x1="191" x2="232" y1="155.1094" y2="155.1094"/><polygon fill="#181818" points="201,151.1094,191,155.1094,201,159.1094,197,155.1094" style="stroke:#181818;stroke-width:1.0;"/><text fill="#000000" font-family="sans-serif" font-size="13" lengthAdjust="spacing" textLength="127" x="197" y="137.3672">Format log message</text><polygon fill="#181818" points="333,180.4199,343,184.4199,333,188.4199,337,184.4199" style="stroke:#181818;stroke-width:1.0;"/><line style="stroke:#181818;stroke-width:1.0;" x1="190" x2="339" y1="184.4199" y2="184.4199"/><text fill="#000000" font-family="sans-serif" font-size="13" lengthAdjust="spacing" textLength="113" x="197" y="179.6777">Send log message</text><line style="stroke:#181818;stroke-width:1.0;" x1="355" x2="397" y1="213.7305" y2="213.7305"/><line style="stroke:#181818;stroke-width:1.0;" x1="397" x2="397" y1="213.7305" y2="226.7305"/><line style="stroke:#181818;stroke-width:1.0;" x1="356" x2="397" y1="226.7305" y2="226.7305"/><polygon fill="#181818" points="366,222.7305,356,226.7305,366,230.7305,362,226.7305" style="stroke:#181818;stroke-width:1.0;"/><text fill="#000000" font-family="sans-serif" font-size="13" lengthAdjust="spacing" textLength="130" x="362" y="208.9883">Receive log message</text><line style="stroke:#181818;stroke-width:1.0;" x1="355" x2="397" y1="256.041" y2="256.041"/><line style="stroke:#181818;stroke-width:1.0;" x1="397" x2="397" y1="256.041" y2="269.041"/><line style="stroke:#181818;stroke-width:1.0;" x1="356" x2="397" y1="269.041" y2="269.041"/><polygon fill="#181818" points="366,265.041,356,269.041,366,273.041,362,269.041" style="stroke:#181818;stroke-width:1.0;"/><text fill="#000000" font-family="sans-serif" font-size="13" lengthAdjust="spacing" textLength="131" x="362" y="251.2988">Process log message</text><line style="stroke:#181818;stroke-width:1.0;" x1="355" x2="397" y1="298.3516" y2="298.3516"/><line style="stroke:#181818;stroke-width:1.0;" x1="397" x2="397" y1="298.3516" y2="311.3516"/><line style="stroke:#181818;stroke-width:1.0;" x1="356" x2="397" y1="311.3516" y2="311.3516"/><polygon fill="#181818" points="366,307.3516,356,311.3516,366,315.3516,362,311.3516" style="stroke:#181818;stroke-width:1.0;"/><text fill="#000000" font-family="sans-serif" font-size="13" lengthAdjust="spacing" textLength="115" x="362" y="293.6094">Store log message</text><polygon fill="#181818" points="201,336.6621,191,340.6621,201,344.6621,197,340.6621" style="stroke:#181818;stroke-width:1.0;"/><line style="stroke:#181818;stroke-width:1.0;" x1="195" x2="344" y1="340.6621" y2="340.6621"/><text fill="#000000" font-family="sans-serif" font-size="13" lengthAdjust="spacing" textLength="131" x="207" y="335.9199">Acknowledge receipt</text><polygon fill="#181818" points="39,365.9727,29,369.9727,39,373.9727,35,369.9727" style="stroke:#181818;stroke-width:1.0;"/><line style="stroke:#181818;stroke-width:1.0;" x1="33" x2="189" y1="369.9727" y2="369.9727"/><text fill="#000000" font-family="sans-serif" font-size="13" lengthAdjust="spacing" textLength="131" x="45" y="365.2305">Acknowledge receipt</text><!--SRC=[bP512i8m44NtESNGlHVeGX11Drs8FS6O3c6mJSfqg7XxKnlKIAMupC-R_pypQ3K8x5ichwP7KRRSerSePWqglWZAlG0S4XQLdAo2S-mTr2GZoPDCqgmOaxmssxT52KVo9AW4RN3GqJ2W8_Fw_u8FGJhKtsWMMCOglibWjChZ59OtoruBFcUon6DUSMtc9C56zA-PEbvX9ULZ6JjxzU7MKkC8P6hOwzBYbi47]--></g></svg>