<?xml version="1.0" encoding="us-ascii" standalone="no"?><svg xmlns="http://www.w3.org/2000/svg" xmlns:xlink="http://www.w3.org/1999/xlink" contentStyleType="text/css" height="930px" preserveAspectRatio="none" style="width:1118px;height:930px;background:#FFFFFF;" version="1.1" viewBox="0 0 1118 930" width="1118px" zoomAndPan="magnify"><defs/><g><!--cluster Logger system--><g id="cluster_Logger system"><path d="M8.5,6 L111.5,6 A3.75,3.75 0 0 1 114,8.5 L121,28.0986 L1108.5,28.0986 A2.5,2.5 0 0 1 1111,30.5986 L1111,920.87 A2.5,2.5 0 0 1 1108.5,923.37 L8.5,923.37 A2.5,2.5 0 0 1 6,920.87 L6,8.5 A2.5,2.5 0 0 1 8.5,6 " fill="none" style="stroke:#000000;stroke-width:1.5;"/><line style="stroke:#000000;stroke-width:1.5;" x1="6" x2="121" y1="28.0986" y2="28.0986"/><text fill="#000000" font-family="Arial" font-size="14" font-weight="bold" lengthAdjust="spacing" textLength="102" x="10" y="21.1318">Logger system</text></g><!--class Logger--><g id="elem_Logger"><rect codeLine="102" fill="#F1F1F1" height="192.8877" id="Logger" rx="2.5" ry="2.5" style="stroke:#181818;stroke-width:0.5;" width="231" x="513.5" y="41"/><ellipse cx="602.25" cy="57" fill="#ADD1B2" rx="11" ry="11" style="stroke:#181818;stroke-width:1.0;"/><path d="M604.7231,63.1431 Q604.1421,63.4419 603.5029,63.5913 Q602.8638,63.7407 602.1582,63.7407 Q599.6514,63.7407 598.3315,62.0889 Q597.0117,60.437 597.0117,57.3159 Q597.0117,54.1865 598.3315,52.5347 Q599.6514,50.8828 602.1582,50.8828 Q602.8638,50.8828 603.5112,51.0322 Q604.1587,51.1816 604.7231,51.4805 L604.7231,54.2031 Q604.0923,53.6221 603.4988,53.3523 Q602.9053,53.0825 602.2744,53.0825 Q600.9297,53.0825 600.2449,54.1492 Q599.5601,55.2158 599.5601,57.3159 Q599.5601,59.4077 600.2449,60.4744 Q600.9297,61.541 602.2744,61.541 Q602.9053,61.541 603.4988,61.2712 Q604.0923,61.0015 604.7231,60.4204 Z " fill="#000000"/><text fill="#000000" font-family="Arial" font-size="14" lengthAdjust="spacing" textLength="45" x="622.75" y="62.0825">Logger</text><line style="stroke:#181818;stroke-width:0.5;" x1="514.5" x2="743.5" y1="73" y2="73"/><rect fill="none" height="6" style="stroke:#C82930;stroke-width:1.0;" width="6" x="521.5" y="83.5493"/><text fill="#000000" font-family="Arial" font-size="14" lengthAdjust="spacing" textLength="76" x="533.5" y="90.1318">logLevel: int</text><rect fill="none" height="6" style="stroke:#C82930;stroke-width:1.0;" width="6" x="521.5" y="99.6479"/><text fill="#000000" font-family="Arial" font-size="14" lengthAdjust="spacing" textLength="165" x="533.5" y="106.2305">buffer: List&lt;LogMessage&gt;</text><rect fill="none" height="6" style="stroke:#C82930;stroke-width:1.0;" width="6" x="521.5" y="115.7466"/><text fill="#000000" font-family="Arial" font-size="14" lengthAdjust="spacing" textLength="153" x="533.5" y="122.3291">formatter: LogFormatter</text><rect fill="none" height="6" style="stroke:#C82930;stroke-width:1.0;" width="6" x="521.5" y="131.8452"/><text fill="#000000" font-family="Arial" font-size="14" lengthAdjust="spacing" textLength="182" x="533.5" y="138.4277">networkClient: NetworkClient</text><line style="stroke:#181818;stroke-width:1.0;" x1="514.5" x2="743.5" y1="145.3945" y2="145.3945"/><ellipse cx="524.5" cy="158.9438" fill="#84BE84" rx="3" ry="3" style="stroke:#038048;stroke-width:1.0;"/><text fill="#000000" font-family="Arial" font-size="14" lengthAdjust="spacing" textLength="205" x="533.5" y="162.5264">log(level: int, message: str): void</text><ellipse cx="524.5" cy="175.0425" fill="#84BE84" rx="3" ry="3" style="stroke:#038048;stroke-width:1.0;"/><text fill="#000000" font-family="Arial" font-size="14" lengthAdjust="spacing" textLength="149" x="533.5" y="178.625">info(message: str): void</text><ellipse cx="524.5" cy="191.1411" fill="#84BE84" rx="3" ry="3" style="stroke:#038048;stroke-width:1.0;"/><text fill="#000000" font-family="Arial" font-size="14" lengthAdjust="spacing" textLength="157" x="533.5" y="194.7236">warn(message: str): void</text><ellipse cx="524.5" cy="207.2397" fill="#84BE84" rx="3" ry="3" style="stroke:#038048;stroke-width:1.0;"/><text fill="#000000" font-family="Arial" font-size="14" lengthAdjust="spacing" textLength="157" x="533.5" y="210.8223">error(message: str): void</text><ellipse cx="524.5" cy="223.3384" fill="#84BE84" rx="3" ry="3" style="stroke:#038048;stroke-width:1.0;"/><text fill="#000000" font-family="Arial" font-size="14" lengthAdjust="spacing" textLength="112" x="533.5" y="226.9209">flushBuffer(): void</text></g><!--class LogFormatter--><g id="elem_LogFormatter"><rect codeLine="115" fill="#F1F1F1" height="80.1973" id="LogFormatter" rx="2.5" ry="2.5" style="stroke:#181818;stroke-width:0.5;" width="438" x="22" y="309.99"/><ellipse cx="193.25" cy="325.99" fill="#ADD1B2" rx="11" ry="11" style="stroke:#181818;stroke-width:1.0;"/><path d="M195.7231,332.1331 Q195.1421,332.4319 194.5029,332.5813 Q193.8638,332.7307 193.1582,332.7307 Q190.6514,332.7307 189.3315,331.0789 Q188.0117,329.427 188.0117,326.3059 Q188.0117,323.1765 189.3315,321.5247 Q190.6514,319.8728 193.1582,319.8728 Q193.8638,319.8728 194.5112,320.0222 Q195.1587,320.1716 195.7231,320.4705 L195.7231,323.1931 Q195.0923,322.6121 194.4988,322.3423 Q193.9053,322.0725 193.2744,322.0725 Q191.9297,322.0725 191.2449,323.1392 Q190.5601,324.2058 190.5601,326.3059 Q190.5601,328.3977 191.2449,329.4644 Q191.9297,330.531 193.2744,330.531 Q193.9053,330.531 194.4988,330.2612 Q195.0923,329.9915 195.7231,329.4104 Z " fill="#000000"/><text fill="#000000" font-family="Arial" font-size="14" lengthAdjust="spacing" textLength="87" x="213.75" y="331.0725">LogFormatter</text><line style="stroke:#181818;stroke-width:0.5;" x1="23" x2="459" y1="341.99" y2="341.99"/><rect fill="none" height="6" style="stroke:#C82930;stroke-width:1.0;" width="6" x="30" y="352.5393"/><text fill="#000000" font-family="Arial" font-size="14" lengthAdjust="spacing" textLength="98" x="42" y="359.1218">dateFormat: str</text><line style="stroke:#181818;stroke-width:1.0;" x1="23" x2="459" y1="366.0886" y2="366.0886"/><ellipse cx="33" cy="379.6379" fill="#84BE84" rx="3" ry="3" style="stroke:#038048;stroke-width:1.0;"/><text fill="#000000" font-family="Arial" font-size="14" lengthAdjust="spacing" textLength="412" x="42" y="383.2205">formatMessage(level: int, message: str, timestamp: datetime): str</text></g><!--class LogProcessor--><g id="elem_LogProcessor"><rect codeLine="121" fill="#F1F1F1" height="96.2959" id="LogProcessor" rx="2.5" ry="2.5" style="stroke:#181818;stroke-width:0.5;" width="415" x="421.5" y="654.78"/><ellipse cx="580.75" cy="670.78" fill="#ADD1B2" rx="11" ry="11" style="stroke:#181818;stroke-width:1.0;"/><path d="M583.2231,676.9231 Q582.6421,677.2219 582.0029,677.3713 Q581.3638,677.5207 580.6582,677.5207 Q578.1514,677.5207 576.8315,675.8689 Q575.5117,674.217 575.5117,671.0959 Q575.5117,667.9665 576.8315,666.3147 Q578.1514,664.6628 580.6582,664.6628 Q581.3638,664.6628 582.0112,664.8122 Q582.6587,664.9616 583.2231,665.2605 L583.2231,667.9831 Q582.5923,667.4021 581.9988,667.1323 Q581.4053,666.8625 580.7744,666.8625 Q579.4297,666.8625 578.7449,667.9292 Q578.0601,668.9958 578.0601,671.0959 Q578.0601,673.1877 578.7449,674.2544 Q579.4297,675.321 580.7744,675.321 Q581.4053,675.321 581.9988,675.0512 Q582.5923,674.7815 583.2231,674.2004 Z " fill="#000000"/><text fill="#000000" font-family="Arial" font-size="14" lengthAdjust="spacing" textLength="88" x="601.25" y="675.8625">LogProcessor</text><line style="stroke:#181818;stroke-width:0.5;" x1="422.5" x2="835.5" y1="686.78" y2="686.78"/><rect fill="none" height="6" style="stroke:#C82930;stroke-width:1.0;" width="6" x="429.5" y="697.3293"/><text fill="#000000" font-family="Arial" font-size="14" lengthAdjust="spacing" textLength="136" x="441.5" y="703.9118">filters: List&lt;LogFilter&gt;</text><rect fill="none" height="6" style="stroke:#C82930;stroke-width:1.0;" width="6" x="429.5" y="713.4279"/><text fill="#000000" font-family="Arial" font-size="14" lengthAdjust="spacing" textLength="218" x="441.5" y="720.0105">aggregators: List&lt;LogAggregator&gt;</text><line style="stroke:#181818;stroke-width:1.0;" x1="422.5" x2="835.5" y1="726.9773" y2="726.9773"/><ellipse cx="432.5" cy="740.5266" fill="#84BE84" rx="3" ry="3" style="stroke:#038048;stroke-width:1.0;"/><text fill="#000000" font-family="Arial" font-size="14" lengthAdjust="spacing" textLength="389" x="441.5" y="744.1091">processLog(message: LogMessage): ProcessedLogMessage</text></g><!--class LogAggregator--><g id="elem_LogAggregator"><rect codeLine="128" fill="#F1F1F1" height="96.2959" id="LogAggregator" rx="2.5" ry="2.5" style="stroke:#181818;stroke-width:0.5;" width="431" x="413.5" y="811.07"/><ellipse cx="577.25" cy="827.07" fill="#ADD1B2" rx="11" ry="11" style="stroke:#181818;stroke-width:1.0;"/><path d="M579.7231,833.2131 Q579.1421,833.5119 578.5029,833.6613 Q577.8638,833.8107 577.1582,833.8107 Q574.6514,833.8107 573.3315,832.1589 Q572.0117,830.507 572.0117,827.3859 Q572.0117,824.2565 573.3315,822.6047 Q574.6514,820.9528 577.1582,820.9528 Q577.8638,820.9528 578.5112,821.1022 Q579.1587,821.2516 579.7231,821.5505 L579.7231,824.2731 Q579.0923,823.6921 578.4988,823.4223 Q577.9053,823.1525 577.2744,823.1525 Q575.9297,823.1525 575.2449,824.2192 Q574.5601,825.2858 574.5601,827.3859 Q574.5601,829.4777 575.2449,830.5444 Q575.9297,831.611 577.2744,831.611 Q577.9053,831.611 578.4988,831.3412 Q579.0923,831.0715 579.7231,830.4904 Z " fill="#000000"/><text fill="#000000" font-family="Arial" font-size="14" lengthAdjust="spacing" textLength="95" x="597.75" y="832.1525">LogAggregator</text><line style="stroke:#181818;stroke-width:0.5;" x1="414.5" x2="843.5" y1="843.07" y2="843.07"/><rect fill="none" height="6" style="stroke:#C82930;stroke-width:1.0;" width="6" x="421.5" y="853.6193"/><text fill="#000000" font-family="Arial" font-size="14" lengthAdjust="spacing" textLength="264" x="433.5" y="860.2018">aggregationRules: List&lt;AggregationRule&gt;</text><line style="stroke:#181818;stroke-width:1.0;" x1="414.5" x2="843.5" y1="867.1686" y2="867.1686"/><ellipse cx="424.5" cy="880.7179" fill="#84BE84" rx="3" ry="3" style="stroke:#038048;stroke-width:1.0;"/><text fill="#000000" font-family="Arial" font-size="14" lengthAdjust="spacing" textLength="248" x="433.5" y="884.3005">filterLogs(level: int): List&lt;LogMessage&gt;</text><ellipse cx="424.5" cy="896.8166" fill="#84BE84" rx="3" ry="3" style="stroke:#038048;stroke-width:1.0;"/><text fill="#000000" font-family="Arial" font-size="14" lengthAdjust="spacing" textLength="405" x="433.5" y="900.3991">aggregateLogs(messages: List&lt;LogMessage&gt;): AggregatedLog</text></g><!--class NetworkClient--><g id="elem_NetworkClient"><rect codeLine="135" fill="#F1F1F1" height="96.2959" id="NetworkClient" rx="2.5" ry="2.5" style="stroke:#181818;stroke-width:0.5;" width="268" x="495" y="301.94"/><ellipse cx="580.75" cy="317.94" fill="#ADD1B2" rx="11" ry="11" style="stroke:#181818;stroke-width:1.0;"/><path d="M583.2231,324.0831 Q582.6421,324.3819 582.0029,324.5313 Q581.3638,324.6807 580.6582,324.6807 Q578.1514,324.6807 576.8315,323.0289 Q575.5117,321.377 575.5117,318.2559 Q575.5117,315.1265 576.8315,313.4747 Q578.1514,311.8228 580.6582,311.8228 Q581.3638,311.8228 582.0112,311.9722 Q582.6587,312.1216 583.2231,312.4205 L583.2231,315.1431 Q582.5923,314.5621 581.9988,314.2923 Q581.4053,314.0225 580.7744,314.0225 Q579.4297,314.0225 578.7449,315.0892 Q578.0601,316.1558 578.0601,318.2559 Q578.0601,320.3477 578.7449,321.4144 Q579.4297,322.481 580.7744,322.481 Q581.4053,322.481 581.9988,322.2112 Q582.5923,321.9415 583.2231,321.3604 Z " fill="#000000"/><text fill="#000000" font-family="Arial" font-size="14" lengthAdjust="spacing" textLength="88" x="601.25" y="323.0225">NetworkClient</text><line style="stroke:#181818;stroke-width:0.5;" x1="496" x2="762" y1="333.94" y2="333.94"/><rect fill="none" height="6" style="stroke:#C82930;stroke-width:1.0;" width="6" x="503" y="344.4893"/><text fill="#000000" font-family="Arial" font-size="14" lengthAdjust="spacing" textLength="142" x="515" y="351.0718">server: NetworkServer</text><rect fill="none" height="6" style="stroke:#C82930;stroke-width:1.0;" width="6" x="503" y="360.5879"/><text fill="#000000" font-family="Arial" font-size="14" lengthAdjust="spacing" textLength="48" x="515" y="367.1705">port: int</text><line style="stroke:#181818;stroke-width:1.0;" x1="496" x2="762" y1="374.1373" y2="374.1373"/><ellipse cx="506" cy="387.6866" fill="#84BE84" rx="3" ry="3" style="stroke:#038048;stroke-width:1.0;"/><text fill="#000000" font-family="Arial" font-size="14" lengthAdjust="spacing" textLength="242" x="515" y="391.2691">sendLog(formattedMessage: str): void</text></g><!--class NetworkServer--><g id="elem_NetworkServer"><rect codeLine="142" fill="#F1F1F1" height="128.4932" id="NetworkServer" rx="2.5" ry="2.5" style="stroke:#181818;stroke-width:0.5;" width="308" x="475" y="466.29"/><ellipse cx="577.75" cy="482.29" fill="#ADD1B2" rx="11" ry="11" style="stroke:#181818;stroke-width:1.0;"/><path d="M580.2231,488.4331 Q579.6421,488.7319 579.0029,488.8813 Q578.3638,489.0307 577.6582,489.0307 Q575.1514,489.0307 573.8315,487.3789 Q572.5117,485.727 572.5117,482.6059 Q572.5117,479.4765 573.8315,477.8247 Q575.1514,476.1728 577.6582,476.1728 Q578.3638,476.1728 579.0112,476.3222 Q579.6587,476.4716 580.2231,476.7705 L580.2231,479.4931 Q579.5923,478.9121 578.9988,478.6423 Q578.4053,478.3725 577.7744,478.3725 Q576.4297,478.3725 575.7449,479.4392 Q575.0601,480.5058 575.0601,482.6059 Q575.0601,484.6977 575.7449,485.7644 Q576.4297,486.831 577.7744,486.831 Q578.4053,486.831 578.9988,486.5612 Q579.5923,486.2915 580.2231,485.7104 Z " fill="#000000"/><text fill="#000000" font-family="Arial" font-size="14" lengthAdjust="spacing" textLength="94" x="598.25" y="487.3725">NetworkServer</text><line style="stroke:#181818;stroke-width:0.5;" x1="476" x2="782" y1="498.29" y2="498.29"/><rect fill="none" height="6" style="stroke:#C82930;stroke-width:1.0;" width="6" x="483" y="508.8393"/><text fill="#000000" font-family="Arial" font-size="14" lengthAdjust="spacing" textLength="48" x="495" y="515.4218">port: int</text><rect fill="none" height="6" style="stroke:#C82930;stroke-width:1.0;" width="6" x="483" y="524.9379"/><text fill="#000000" font-family="Arial" font-size="14" lengthAdjust="spacing" textLength="282" x="495" y="531.5205">connectionQueue: List&lt;NetworkConnection&gt;</text><line style="stroke:#181818;stroke-width:1.0;" x1="476" x2="782" y1="538.4873" y2="538.4873"/><ellipse cx="486" cy="552.0366" fill="#84BE84" rx="3" ry="3" style="stroke:#038048;stroke-width:1.0;"/><text fill="#000000" font-family="Arial" font-size="14" lengthAdjust="spacing" textLength="170" x="495" y="555.6191">receiveLog(): LogMessage</text><ellipse cx="486" cy="568.1352" fill="#84BE84" rx="3" ry="3" style="stroke:#038048;stroke-width:1.0;"/><text fill="#000000" font-family="Arial" font-size="14" lengthAdjust="spacing" textLength="114" x="495" y="571.7177">startServer(): void</text><ellipse cx="486" cy="584.2338" fill="#84BE84" rx="3" ry="3" style="stroke:#038048;stroke-width:1.0;"/><text fill="#000000" font-family="Arial" font-size="14" lengthAdjust="spacing" textLength="113" x="495" y="587.8164">stopServer(): void</text></g><!--class Buffer--><g id="elem_Buffer"><rect codeLine="151" fill="#F1F1F1" height="112.3945" id="Buffer" rx="2.5" ry="2.5" style="stroke:#181818;stroke-width:0.5;" width="297" x="797.5" y="293.89"/><ellipse cx="922.75" cy="309.89" fill="#ADD1B2" rx="11" ry="11" style="stroke:#181818;stroke-width:1.0;"/><path d="M925.2231,316.0331 Q924.6421,316.3319 924.0029,316.4813 Q923.3638,316.6307 922.6582,316.6307 Q920.1514,316.6307 918.8315,314.9789 Q917.5117,313.327 917.5117,310.2059 Q917.5117,307.0765 918.8315,305.4247 Q920.1514,303.7728 922.6582,303.7728 Q923.3638,303.7728 924.0112,303.9222 Q924.6587,304.0716 925.2231,304.3705 L925.2231,307.0931 Q924.5923,306.5121 923.9988,306.2423 Q923.4053,305.9725 922.7744,305.9725 Q921.4297,305.9725 920.7449,307.0392 Q920.0601,308.1058 920.0601,310.2059 Q920.0601,312.2977 920.7449,313.3644 Q921.4297,314.431 922.7744,314.431 Q923.4053,314.431 923.9988,314.1612 Q924.5923,313.8915 925.2231,313.3104 Z " fill="#000000"/><text fill="#000000" font-family="Arial" font-size="14" lengthAdjust="spacing" textLength="38" x="943.25" y="314.9725">Buffer</text><line style="stroke:#181818;stroke-width:0.5;" x1="798.5" x2="1093.5" y1="325.89" y2="325.89"/><rect fill="none" height="6" style="stroke:#C82930;stroke-width:1.0;" width="6" x="805.5" y="336.4393"/><text fill="#000000" font-family="Arial" font-size="14" lengthAdjust="spacing" textLength="87" x="817.5" y="343.0218">bufferSize: int</text><rect fill="none" height="6" style="stroke:#C82930;stroke-width:1.0;" width="6" x="805.5" y="352.5379"/><text fill="#000000" font-family="Arial" font-size="14" lengthAdjust="spacing" textLength="193" x="817.5" y="359.1205">messages: List&lt;LogMessage&gt;</text><line style="stroke:#181818;stroke-width:1.0;" x1="798.5" x2="1093.5" y1="366.0873" y2="366.0873"/><ellipse cx="808.5" cy="379.6366" fill="#84BE84" rx="3" ry="3" style="stroke:#038048;stroke-width:1.0;"/><text fill="#000000" font-family="Arial" font-size="14" lengthAdjust="spacing" textLength="271" x="817.5" y="383.2191">addToBuffer(message: LogMessage): void</text><ellipse cx="808.5" cy="395.7352" fill="#84BE84" rx="3" ry="3" style="stroke:#038048;stroke-width:1.0;"/><text fill="#000000" font-family="Arial" font-size="14" lengthAdjust="spacing" textLength="206" x="817.5" y="399.3177">flushBuffer(): List&lt;LogMessage&gt;</text></g><!--link NetworkClient to NetworkServer--><g id="link_NetworkClient_NetworkServer"><path codeLine="160" d="M629,398.44 C629,419.09 629,443.61 629,465.83 " fill="none" id="NetworkClient-NetworkServer" style="stroke:#181818;stroke-width:1.0;"/></g><!--link NetworkServer to LogProcessor--><g id="link_NetworkServer_LogProcessor"><path codeLine="161" d="M629,594.98 C629,614.66 629,636 629,654.41 " fill="none" id="NetworkServer-LogProcessor" style="stroke:#181818;stroke-width:1.0;"/></g><!--link LogProcessor to LogAggregator--><g id="link_LogProcessor_LogAggregator"><path codeLine="162" d="M629,751.48 C629,770.34 629,791.98 629,810.83 " fill="none" id="LogProcessor-LogAggregator" style="stroke:#181818;stroke-width:1.0;"/></g><!--link Logger to LogFormatter--><g id="link_Logger_LogFormatter"><path codeLine="163" d="M513.11,201.36 C448.47,236.46 369.93,279.09 313.88,309.52 " fill="none" id="Logger-LogFormatter" style="stroke:#181818;stroke-width:1.0;"/></g><!--link Logger to NetworkClient--><g id="link_Logger_NetworkClient"><path codeLine="164" d="M629,234.21 C629,257.58 629,281.58 629,301.56 " fill="none" id="Logger-NetworkClient" style="stroke:#181818;stroke-width:1.0;"/></g><!--link Logger to Buffer--><g id="link_Logger_Buffer"><path codeLine="165" d="M744.79,215.39 C783.7,241.24 826.32,269.56 862.28,293.46 " fill="none" id="Logger-Buffer" style="stroke:#181818;stroke-width:1.0;"/></g><!--SRC=[XLJRRiCW37tFLw0zfThw0z4qgPlKfsxQxGTOucIe129mEcrJ_tq4I80swV9G5TlOvnniwpqJ7LMq9HNKjEUubGAVQ0jaenZbMTRHSayR85SxsJIWYFxM2EqL-Ss8-KfEjIRUvKp3joPSDZiu02y84nZPF_gw1bMG7TDuQ-uzWjOc_LqKKalLKaGR9PljU8eY1E2NLFi7pa1WGPxYOmXRJt-l1pWvd_3SaDQLBOX6jIh8GR8gYcQYbldba2-gn3yXe9HK_yJKlDUVzrQJFFOUirJUIOL4v8eYE8zDFq_ToUbrNXJXXY0pPwHjLzYymt4LqXxjRmhgMSdIf90fg9fnWrE79zvQG_p2j6aKD1Hb7BQPZ7VpH3fNpeG6KKC76QmU3rJ1keWzL4l0ZyYO5AyzXn7U9ZKl07JCJN8ToRowqElNKpsmjpmjVNx5P1anM7hdJP8CGS99WpeCm-GZtkmnydTIuScOngmqYA5YFevbzRZGqNDmNB44pamvKaeXe1paVUcX1yz_f3Gv5tHNK08x318ECtJo-9u4KeKEJ7u-XHfbD-DC2BaXJPYuNVR6Vk2Kp_93pZEWLVKk_HgOx-tBUsEsoZ4p1DAsMAzFkY1z9kEEnpfBPjmvmznaVkixUrZJmPpkvM1tkBC_]--></g></svg>